<?xml version="1.0" encoding="UTF-8"?>
<svg xmlns="http://www.w3.org/2000/svg" xmlns:xlink="http://www.w3.org/1999/xlink" width="375pt" height="374.999991pt" viewBox="0 0 375 374.999991" version="1.2">
<defs>
<clipPath id="clip1">
  <path d="M 195 235 L 223.132812 235 L 223.132812 373.773438 L 195 373.773438 Z M 195 235 "/>
</clipPath>
<clipPath id="clip2">
  <path d="M 234.351562 170 L 374.839844 170 L 374.839844 185.640625 L 234.351562 185.640625 Z M 234.351562 170 "/>
</clipPath>
<clipPath id="clip3">
  <path d="M 186 1.023438 L 189 1.023438 L 189 142 L 186 142 Z M 186 1.023438 "/>
</clipPath>
<clipPath id="clip4">
  <path d="M 152 235 L 179.761719 235 L 179.761719 373.773438 L 152 373.773438 Z M 152 235 "/>
</clipPath>
<clipPath id="clip5">
  <path d="M 104.164062 44.511719 L 270.664062 44.511719 L 270.664062 330.257812 L 104.164062 330.257812 Z M 104.164062 44.511719 "/>
</clipPath>
<clipPath id="clip6">
  <path d="M 136.316406 136.316406 L 238.316406 136.316406 L 238.316406 238.316406 L 136.316406 238.316406 Z M 136.316406 136.316406 "/>
</clipPath>
<clipPath id="clip7">
  <path d="M 170 201 L 205 201 L 205 238.316406 L 170 238.316406 Z M 170 201 "/>
</clipPath>
</defs>
<g id="surface1">
<path style=" stroke:none;fill-rule:nonzero;fill:rgb(32.159424%,44.309998%,100%);fill-opacity:1;" d="M 187.558594 341.109375 C 186.941406 341.109375 186.4375 340.605469 186.4375 339.988281 L 186.4375 237.589844 C 186.4375 236.96875 186.941406 236.46875 187.558594 236.46875 C 188.179688 236.46875 188.679688 236.96875 188.679688 237.589844 L 188.679688 339.988281 C 188.679688 340.605469 188.179688 341.109375 187.558594 341.109375 "/>
<g clip-path="url(#clip1)" clip-rule="nonzero">
<path style=" stroke:none;fill-rule:nonzero;fill:rgb(32.159424%,44.309998%,100%);fill-opacity:1;" d="M 221.914062 373.800781 C 221.386719 373.800781 220.914062 373.425781 220.8125 372.886719 L 195.394531 236.972656 C 195.28125 236.363281 195.679688 235.777344 196.292969 235.664062 C 196.894531 235.550781 197.484375 235.949219 197.601562 236.5625 L 223.019531 372.476562 C 223.132812 373.082031 222.730469 373.667969 222.121094 373.785156 C 222.054688 373.796875 221.984375 373.800781 221.914062 373.800781 "/>
</g>
<path style=" stroke:none;fill-rule:nonzero;fill:rgb(32.159424%,44.309998%,100%);fill-opacity:1;" d="M 242.144531 330.953125 C 241.695312 330.953125 241.273438 330.679688 241.101562 330.238281 L 204.074219 234.71875 C 203.851562 234.144531 204.136719 233.492188 204.714844 233.269531 C 205.289062 233.046875 205.941406 233.332031 206.164062 233.910156 L 243.191406 329.425781 C 243.414062 330.003906 243.128906 330.652344 242.550781 330.875 C 242.417969 330.929688 242.28125 330.953125 242.144531 330.953125 "/>
<path style=" stroke:none;fill-rule:nonzero;fill:rgb(32.159424%,44.309998%,100%);fill-opacity:1;" d="M 285.984375 348.996094 C 285.609375 348.996094 285.242188 348.804688 285.03125 348.464844 L 212.199219 230.90625 C 211.871094 230.378906 212.035156 229.6875 212.558594 229.359375 C 213.089844 229.035156 213.777344 229.199219 214.105469 229.726562 L 286.9375 347.285156 C 287.265625 347.808594 287.101562 348.503906 286.574219 348.828125 C 286.390625 348.941406 286.1875 348.996094 285.984375 348.996094 "/>
<path style=" stroke:none;fill-rule:nonzero;fill:rgb(32.159424%,44.309998%,100%);fill-opacity:1;" d="M 289.332031 301.707031 C 289.03125 301.707031 288.726562 301.578125 288.503906 301.339844 L 219.480469 225.660156 C 219.0625 225.203125 219.09375 224.492188 219.554688 224.074219 C 220.007812 223.660156 220.71875 223.691406 221.136719 224.148438 L 290.164062 299.828125 C 290.582031 300.285156 290.546875 300.996094 290.089844 301.414062 C 289.875 301.609375 289.605469 301.707031 289.332031 301.707031 "/>
<path style=" stroke:none;fill-rule:nonzero;fill:rgb(32.159424%,44.309998%,100%);fill-opacity:1;" d="M 336.753906 302.734375 C 336.519531 302.734375 336.28125 302.664062 336.078125 302.507812 L 225.671875 219.175781 C 225.179688 218.804688 225.082031 218.097656 225.453125 217.605469 C 225.828125 217.113281 226.535156 217.015625 227.027344 217.386719 L 337.433594 300.722656 C 337.925781 301.09375 338.023438 301.796875 337.652344 302.289062 C 337.429688 302.582031 337.09375 302.734375 336.753906 302.734375 "/>
<path style=" stroke:none;fill-rule:nonzero;fill:rgb(32.159424%,44.309998%,100%);fill-opacity:1;" d="M 322.8125 257.433594 C 322.648438 257.433594 322.476562 257.394531 322.3125 257.316406 L 230.578125 211.671875 C 230.023438 211.394531 229.796875 210.722656 230.074219 210.167969 C 230.351562 209.613281 231.023438 209.386719 231.578125 209.660156 L 323.316406 255.308594 C 323.867188 255.582031 324.097656 256.257812 323.820312 256.8125 C 323.625 257.207031 323.226562 257.433594 322.8125 257.433594 "/>
<path style=" stroke:none;fill-rule:nonzero;fill:rgb(32.159424%,44.309998%,100%);fill-opacity:1;" d="M 367.386719 241.265625 C 367.289062 241.265625 367.183594 241.253906 367.078125 241.222656 L 234.015625 203.378906 C 233.421875 203.210938 233.074219 202.589844 233.246094 201.996094 C 233.414062 201.398438 234.035156 201.050781 234.628906 201.222656 L 367.691406 239.066406 C 368.289062 239.234375 368.632812 239.855469 368.464844 240.449219 C 368.324219 240.941406 367.878906 241.265625 367.386719 241.265625 "/>
<path style=" stroke:none;fill-rule:nonzero;fill:rgb(32.159424%,44.309998%,100%);fill-opacity:1;" d="M 337.988281 204.058594 C 337.953125 204.058594 337.917969 204.054688 337.882812 204.054688 L 235.855469 194.605469 C 235.242188 194.550781 234.785156 194.003906 234.84375 193.382812 C 234.902344 192.769531 235.441406 192.308594 236.0625 192.375 L 338.09375 201.820312 C 338.707031 201.878906 339.164062 202.421875 339.105469 203.039062 C 339.054688 203.621094 338.5625 204.058594 337.988281 204.058594 "/>
<g clip-path="url(#clip2)" clip-rule="nonzero">
<path style=" stroke:none;fill-rule:nonzero;fill:rgb(32.159424%,44.309998%,100%);fill-opacity:1;" d="M 235.960938 185.640625 C 235.386719 185.640625 234.894531 185.203125 234.84375 184.621094 C 234.785156 184.007812 235.242188 183.460938 235.855469 183.40625 L 373.617188 170.644531 C 374.21875 170.585938 374.78125 171.039062 374.835938 171.660156 C 374.894531 172.273438 374.441406 172.820312 373.824219 172.878906 L 236.0625 185.636719 C 236.027344 185.636719 235.992188 185.640625 235.960938 185.640625 "/>
</g>
<path style=" stroke:none;fill-rule:nonzero;fill:rgb(32.159424%,44.309998%,100%);fill-opacity:1;" d="M 234.324219 176.828125 C 233.832031 176.828125 233.386719 176.507812 233.246094 176.015625 C 233.074219 175.417969 233.421875 174.796875 234.015625 174.628906 L 332.589844 146.59375 C 333.179688 146.421875 333.804688 146.769531 333.976562 147.363281 C 334.144531 147.960938 333.796875 148.578125 333.203125 148.75 L 234.628906 176.785156 C 234.527344 176.816406 234.421875 176.828125 234.324219 176.828125 "/>
<path style=" stroke:none;fill-rule:nonzero;fill:rgb(32.159424%,44.309998%,100%);fill-opacity:1;" d="M 231.078125 168.464844 C 230.664062 168.464844 230.269531 168.238281 230.074219 167.84375 C 229.796875 167.289062 230.023438 166.617188 230.578125 166.339844 L 322.3125 120.691406 L 354.417969 104.714844 C 354.972656 104.4375 355.644531 104.664062 355.921875 105.21875 C 356.199219 105.773438 355.976562 106.445312 355.421875 106.722656 L 323.316406 122.703125 L 231.578125 168.347656 C 231.417969 168.425781 231.246094 168.464844 231.078125 168.464844 "/>
<path style=" stroke:none;fill-rule:nonzero;fill:rgb(32.159424%,44.309998%,100%);fill-opacity:1;" d="M 226.351562 160.847656 C 226.011719 160.847656 225.675781 160.695312 225.453125 160.402344 C 225.082031 159.910156 225.179688 159.207031 225.671875 158.832031 L 307.441406 97.117188 C 307.9375 96.742188 308.644531 96.839844 309.015625 97.335938 C 309.386719 97.828125 309.292969 98.53125 308.796875 98.90625 L 227.027344 160.621094 C 226.824219 160.773438 226.585938 160.847656 226.351562 160.847656 "/>
<path style=" stroke:none;fill-rule:nonzero;fill:rgb(32.159424%,44.309998%,100%);fill-opacity:1;" d="M 220.308594 154.226562 C 220.039062 154.226562 219.765625 154.128906 219.554688 153.933594 C 219.09375 153.515625 219.0625 152.804688 219.480469 152.351562 L 312.683594 50.160156 C 313.101562 49.703125 313.8125 49.671875 314.265625 50.085938 C 314.726562 50.503906 314.757812 51.210938 314.34375 51.671875 L 221.136719 153.859375 C 220.914062 154.101562 220.613281 154.226562 220.308594 154.226562 "/>
<path style=" stroke:none;fill-rule:nonzero;fill:rgb(32.159424%,44.309998%,100%);fill-opacity:1;" d="M 213.148438 148.816406 C 212.949219 148.816406 212.742188 148.757812 212.558594 148.644531 C 212.035156 148.320312 211.871094 147.628906 212.199219 147.105469 L 266.148438 60.027344 C 266.472656 59.5 267.167969 59.339844 267.691406 59.660156 C 268.21875 59.988281 268.382812 60.679688 268.054688 61.207031 L 214.105469 148.285156 C 213.890625 148.625 213.527344 148.816406 213.148438 148.816406 "/>
<path style=" stroke:none;fill-rule:nonzero;fill:rgb(32.159424%,44.309998%,100%);fill-opacity:1;" d="M 205.121094 144.816406 C 204.984375 144.816406 204.847656 144.792969 204.714844 144.738281 C 204.136719 144.515625 203.851562 143.867188 204.074219 143.289062 L 254.050781 14.355469 C 254.273438 13.777344 254.925781 13.488281 255.503906 13.714844 C 256.082031 13.941406 256.367188 14.585938 256.140625 15.164062 L 206.164062 144.101562 C 205.992188 144.542969 205.570312 144.816406 205.121094 144.816406 "/>
<path style=" stroke:none;fill-rule:nonzero;fill:rgb(32.159424%,44.309998%,100%);fill-opacity:1;" d="M 196.5 142.367188 C 196.429688 142.367188 196.363281 142.359375 196.292969 142.34375 C 195.679688 142.230469 195.28125 141.648438 195.394531 141.035156 L 214.226562 40.367188 C 214.339844 39.753906 214.929688 39.355469 215.535156 39.464844 C 216.140625 39.582031 216.542969 40.167969 216.429688 40.777344 L 197.601562 141.449219 C 197.496094 141.988281 197.027344 142.367188 196.5 142.367188 "/>
<g clip-path="url(#clip3)" clip-rule="nonzero">
<path style=" stroke:none;fill-rule:nonzero;fill:rgb(32.159424%,44.309998%,100%);fill-opacity:1;" d="M 187.558594 141.542969 C 186.941406 141.542969 186.4375 141.039062 186.4375 140.421875 L 186.4375 2.144531 C 186.4375 1.523438 186.941406 1.023438 187.558594 1.023438 C 188.179688 1.023438 188.679688 1.523438 188.679688 2.144531 L 188.679688 140.421875 C 188.679688 141.039062 188.179688 141.542969 187.558594 141.542969 "/>
</g>
<path style=" stroke:none;fill-rule:nonzero;fill:rgb(32.159424%,44.309998%,100%);fill-opacity:1;" d="M 178.625 142.367188 C 178.089844 142.367188 177.621094 141.988281 177.523438 141.449219 L 158.6875 40.777344 C 158.578125 40.167969 158.976562 39.582031 159.585938 39.464844 C 160.199219 39.359375 160.78125 39.753906 160.894531 40.367188 L 179.726562 141.035156 C 179.839844 141.648438 179.4375 142.230469 178.832031 142.34375 C 178.761719 142.359375 178.691406 142.367188 178.625 142.367188 "/>
<path style=" stroke:none;fill-rule:nonzero;fill:rgb(32.159424%,44.309998%,100%);fill-opacity:1;" d="M 170 144.816406 C 169.550781 144.816406 169.125 144.542969 168.953125 144.101562 L 118.976562 15.164062 C 118.753906 14.585938 119.039062 13.941406 119.617188 13.714844 C 120.199219 13.492188 120.84375 13.777344 121.070312 14.355469 L 171.046875 143.289062 C 171.269531 143.867188 170.984375 144.515625 170.40625 144.738281 C 170.273438 144.792969 170.136719 144.816406 170 144.816406 "/>
<path style=" stroke:none;fill-rule:nonzero;fill:rgb(32.159424%,44.309998%,100%);fill-opacity:1;" d="M 161.96875 148.816406 C 161.59375 148.816406 161.226562 148.625 161.015625 148.285156 L 107.066406 61.207031 C 106.738281 60.679688 106.902344 59.988281 107.429688 59.660156 C 107.957031 59.339844 108.648438 59.5 108.976562 60.027344 L 162.921875 147.105469 C 163.25 147.628906 163.085938 148.320312 162.558594 148.644531 C 162.375 148.757812 162.171875 148.816406 161.96875 148.816406 "/>
<path style=" stroke:none;fill-rule:nonzero;fill:rgb(32.159424%,44.309998%,100%);fill-opacity:1;" d="M 154.8125 154.226562 C 154.507812 154.226562 154.203125 154.101562 153.984375 153.859375 L 60.78125 51.671875 C 60.363281 51.210938 60.394531 50.503906 60.851562 50.085938 C 61.3125 49.667969 62.019531 49.703125 62.4375 50.160156 L 155.640625 152.351562 C 156.058594 152.804688 156.023438 153.515625 155.570312 153.933594 C 155.351562 154.128906 155.082031 154.226562 154.8125 154.226562 "/>
<path style=" stroke:none;fill-rule:nonzero;fill:rgb(32.159424%,44.309998%,100%);fill-opacity:1;" d="M 148.769531 160.847656 C 148.53125 160.847656 148.292969 160.773438 148.09375 160.621094 L 66.324219 98.90625 C 65.832031 98.53125 65.730469 97.828125 66.105469 97.335938 C 66.480469 96.839844 67.183594 96.742188 67.675781 97.117188 L 149.445312 158.832031 C 149.941406 159.207031 150.039062 159.910156 149.664062 160.402344 C 149.445312 160.695312 149.105469 160.847656 148.769531 160.847656 "/>
<path style=" stroke:none;fill-rule:nonzero;fill:rgb(32.159424%,44.309998%,100%);fill-opacity:1;" d="M 144.042969 168.464844 C 143.875 168.464844 143.703125 168.425781 143.542969 168.347656 L 19.699219 106.722656 C 19.144531 106.445312 18.921875 105.773438 19.195312 105.21875 C 19.472656 104.664062 20.148438 104.4375 20.699219 104.714844 L 52.804688 120.691406 L 144.542969 166.339844 C 145.097656 166.617188 145.324219 167.289062 145.046875 167.84375 C 144.851562 168.238281 144.453125 168.464844 144.042969 168.464844 "/>
<path style=" stroke:none;fill-rule:nonzero;fill:rgb(32.159424%,44.309998%,100%);fill-opacity:1;" d="M 140.800781 176.828125 C 140.695312 176.828125 140.59375 176.816406 140.488281 176.785156 L 41.917969 148.75 C 41.320312 148.578125 40.976562 147.960938 41.144531 147.363281 C 41.316406 146.769531 41.9375 146.421875 42.53125 146.59375 L 141.105469 174.628906 C 141.703125 174.796875 142.046875 175.417969 141.875 176.015625 C 141.738281 176.507812 141.285156 176.828125 140.800781 176.828125 "/>
<path style=" stroke:none;fill-rule:nonzero;fill:rgb(32.159424%,44.309998%,100%);fill-opacity:1;" d="M 139.160156 185.640625 C 139.125 185.640625 139.089844 185.636719 139.054688 185.636719 L 1.296875 172.878906 C 0.679688 172.820312 0.226562 172.273438 0.285156 171.660156 C 0.339844 171.042969 0.882812 170.585938 1.5 170.644531 L 139.261719 183.40625 C 139.882812 183.460938 140.335938 184.007812 140.277344 184.621094 C 140.222656 185.203125 139.734375 185.640625 139.160156 185.640625 "/>
<path style=" stroke:none;fill-rule:nonzero;fill:rgb(32.159424%,44.309998%,100%);fill-opacity:1;" d="M 37.128906 204.058594 C 36.558594 204.058594 36.070312 203.621094 36.011719 203.039062 C 35.957031 202.421875 36.410156 201.878906 37.027344 201.820312 L 139.054688 192.375 C 139.671875 192.308594 140.21875 192.769531 140.277344 193.382812 C 140.335938 194.003906 139.882812 194.550781 139.261719 194.605469 L 37.234375 204.054688 C 37.199219 204.054688 37.164062 204.058594 37.128906 204.058594 "/>
<path style=" stroke:none;fill-rule:nonzero;fill:rgb(32.159424%,44.309998%,100%);fill-opacity:1;" d="M 7.734375 241.265625 C 7.246094 241.265625 6.792969 240.941406 6.65625 240.449219 C 6.484375 239.855469 6.828125 239.234375 7.425781 239.066406 L 140.488281 201.222656 C 141.085938 201.054688 141.707031 201.398438 141.875 201.996094 C 142.046875 202.589844 141.703125 203.210938 141.105469 203.378906 L 8.042969 241.222656 C 7.9375 241.253906 7.835938 241.265625 7.734375 241.265625 "/>
<path style=" stroke:none;fill-rule:nonzero;fill:rgb(32.159424%,44.309998%,100%);fill-opacity:1;" d="M 52.304688 257.433594 C 51.894531 257.433594 51.496094 257.207031 51.300781 256.8125 C 51.027344 256.257812 51.25 255.582031 51.804688 255.308594 L 143.542969 209.660156 C 144.097656 209.386719 144.773438 209.613281 145.046875 210.167969 C 145.324219 210.722656 145.097656 211.394531 144.542969 211.671875 L 52.804688 257.316406 C 52.644531 257.394531 52.476562 257.433594 52.304688 257.433594 "/>
<path style=" stroke:none;fill-rule:nonzero;fill:rgb(32.159424%,44.309998%,100%);fill-opacity:1;" d="M 38.363281 302.734375 C 38.027344 302.734375 37.691406 302.582031 37.472656 302.289062 C 37.097656 301.796875 37.195312 301.09375 37.691406 300.722656 L 148.09375 217.386719 C 148.585938 217.011719 149.292969 217.113281 149.664062 217.605469 C 150.039062 218.097656 149.941406 218.804688 149.445312 219.175781 L 39.042969 302.507812 C 38.839844 302.664062 38.601562 302.734375 38.363281 302.734375 "/>
<path style=" stroke:none;fill-rule:nonzero;fill:rgb(32.159424%,44.309998%,100%);fill-opacity:1;" d="M 85.785156 301.707031 C 85.515625 301.707031 85.246094 301.609375 85.027344 301.414062 C 84.574219 300.996094 84.542969 300.285156 84.957031 299.828125 L 153.984375 224.148438 C 154.398438 223.691406 155.109375 223.660156 155.570312 224.074219 C 156.023438 224.492188 156.058594 225.203125 155.640625 225.660156 L 86.617188 301.339844 C 86.394531 301.578125 86.089844 301.707031 85.785156 301.707031 "/>
<path style=" stroke:none;fill-rule:nonzero;fill:rgb(32.159424%,44.309998%,100%);fill-opacity:1;" d="M 89.136719 348.996094 C 88.933594 348.996094 88.730469 348.941406 88.546875 348.828125 C 88.019531 348.503906 87.855469 347.808594 88.183594 347.285156 L 161.015625 229.726562 C 161.339844 229.199219 162.035156 229.035156 162.558594 229.359375 C 163.085938 229.6875 163.25 230.378906 162.921875 230.90625 L 90.089844 348.464844 C 89.878906 348.804688 89.511719 348.996094 89.136719 348.996094 "/>
<path style=" stroke:none;fill-rule:nonzero;fill:rgb(32.159424%,44.309998%,100%);fill-opacity:1;" d="M 132.976562 330.953125 C 132.839844 330.953125 132.703125 330.929688 132.570312 330.875 C 131.992188 330.652344 131.707031 330.003906 131.925781 329.425781 L 168.953125 233.910156 C 169.179688 233.332031 169.828125 233.046875 170.40625 233.269531 C 170.984375 233.492188 171.269531 234.144531 171.046875 234.71875 L 134.023438 330.238281 C 133.847656 330.679688 133.421875 330.953125 132.976562 330.953125 "/>
<g clip-path="url(#clip4)" clip-rule="nonzero">
<path style=" stroke:none;fill-rule:nonzero;fill:rgb(32.159424%,44.309998%,100%);fill-opacity:1;" d="M 153.207031 373.800781 C 153.136719 373.800781 153.066406 373.796875 153 373.785156 C 152.390625 373.667969 151.988281 373.082031 152.101562 372.476562 L 177.523438 236.5625 C 177.632812 235.953125 178.21875 235.550781 178.832031 235.664062 C 179.4375 235.777344 179.839844 236.363281 179.726562 236.972656 L 154.308594 372.886719 C 154.203125 373.425781 153.734375 373.800781 153.207031 373.800781 "/>
</g>
<path style=" stroke:none;fill-rule:nonzero;fill:rgb(32.159424%,44.309998%,100%);fill-opacity:1;" d="M 187.558594 141.542969 C 184.632812 141.542969 181.695312 141.8125 178.828125 142.34375 C 175.9375 142.882812 173.101562 143.6875 170.410156 144.738281 C 167.695312 145.78125 165.058594 147.09375 162.5625 148.644531 C 160.089844 150.175781 157.738281 151.953125 155.570312 153.933594 C 153.402344 155.898438 151.421875 158.074219 149.664062 160.402344 C 147.898438 162.734375 146.34375 165.234375 145.050781 167.84375 C 143.734375 170.457031 142.667969 173.207031 141.875 176.011719 C 141.070312 178.84375 140.53125 181.742188 140.277344 184.621094 C 140.140625 186.039062 140.070312 187.511719 140.070312 189.003906 C 140.070312 190.496094 140.140625 191.972656 140.277344 193.382812 C 140.53125 196.269531 141.070312 199.164062 141.875 201.996094 C 142.667969 204.800781 143.734375 207.546875 145.046875 210.164062 C 146.34375 212.773438 147.898438 215.277344 149.664062 217.605469 C 151.421875 219.9375 153.402344 222.109375 155.566406 224.074219 C 157.742188 226.054688 160.09375 227.835938 162.558594 229.359375 C 165.058594 230.914062 167.695312 232.226562 170.402344 233.265625 C 173.105469 234.320312 175.9375 235.128906 178.828125 235.664062 C 184.5625 236.730469 190.558594 236.730469 196.292969 235.664062 C 199.183594 235.128906 202.015625 234.320312 204.714844 233.269531 C 207.425781 232.226562 210.066406 230.914062 212.558594 229.363281 C 215.023438 227.832031 217.375 226.054688 219.554688 224.074219 C 221.714844 222.109375 223.703125 219.9375 225.453125 217.609375 C 227.222656 215.277344 228.777344 212.773438 230.074219 210.167969 C 231.382812 207.546875 232.453125 204.800781 233.242188 201.996094 C 234.046875 199.164062 234.585938 196.269531 234.84375 193.390625 C 234.980469 191.972656 235.046875 190.5 235.046875 189.003906 C 235.046875 187.511719 234.980469 186.039062 234.84375 184.628906 L 234.84375 184.621094 C 234.585938 181.742188 234.046875 178.847656 233.246094 176.015625 C 232.449219 173.207031 231.382812 170.457031 230.074219 167.84375 C 228.777344 165.234375 227.222656 162.734375 225.457031 160.402344 C 223.703125 158.074219 221.714844 155.898438 219.554688 153.933594 C 217.382812 151.957031 215.027344 150.175781 212.558594 148.644531 C 210.0625 147.09375 207.425781 145.78125 204.714844 144.742188 C 202.015625 143.6875 199.183594 142.882812 196.292969 142.34375 C 193.425781 141.8125 190.488281 141.542969 187.558594 141.542969 Z M 187.558594 238.710938 C 184.496094 238.710938 181.417969 238.425781 178.417969 237.867188 C 175.390625 237.304688 172.417969 236.460938 169.59375 235.359375 C 166.757812 234.269531 163.992188 232.894531 161.375 231.265625 C 158.796875 229.671875 156.335938 227.808594 154.054688 225.734375 C 151.792969 223.675781 149.710938 221.394531 147.875 218.953125 C 146.023438 216.519531 144.398438 213.898438 143.039062 211.164062 C 141.667969 208.425781 140.546875 205.546875 139.71875 202.605469 C 138.875 199.640625 138.308594 196.609375 138.042969 193.589844 C 137.902344 192.113281 137.828125 190.570312 137.828125 189.003906 C 137.828125 187.441406 137.902344 185.894531 138.042969 184.410156 C 138.308594 181.402344 138.875 178.367188 139.71875 175.402344 C 140.546875 172.460938 141.667969 169.578125 143.039062 166.839844 C 144.398438 164.113281 146.023438 161.488281 147.875 159.050781 C 149.710938 156.613281 151.792969 154.332031 154.058594 152.273438 C 156.328125 150.203125 158.792969 148.34375 161.378906 146.738281 C 163.992188 145.117188 166.757812 143.742188 169.597656 142.648438 C 172.417969 141.546875 175.386719 140.703125 178.417969 140.140625 C 184.417969 139.023438 190.699219 139.023438 196.703125 140.140625 C 199.734375 140.703125 202.699219 141.546875 205.527344 142.648438 C 208.363281 143.742188 211.128906 145.117188 213.742188 146.742188 C 216.328125 148.34375 218.789062 150.203125 221.0625 152.277344 C 223.328125 154.332031 225.40625 156.613281 227.246094 159.054688 C 229.09375 161.488281 230.722656 164.113281 232.082031 166.84375 C 233.457031 169.578125 234.570312 172.460938 235.402344 175.40625 C 236.246094 178.367188 236.808594 181.402344 237.078125 184.417969 C 237.222656 185.894531 237.292969 187.441406 237.292969 189.003906 C 237.292969 190.570312 237.222656 192.113281 237.078125 193.597656 C 236.808594 196.609375 236.246094 199.640625 235.402344 202.609375 C 234.574219 205.546875 233.457031 208.425781 232.078125 211.167969 C 230.722656 213.898438 229.09375 216.519531 227.246094 218.957031 C 225.40625 221.394531 223.328125 223.675781 221.0625 225.734375 C 218.789062 227.808594 216.324219 229.667969 213.742188 231.269531 C 211.128906 232.894531 208.363281 234.269531 205.523438 235.359375 C 202.699219 236.460938 199.734375 237.304688 196.703125 237.867188 C 193.699219 238.425781 190.625 238.710938 187.558594 238.710938 "/>
<g clip-path="url(#clip5)" clip-rule="nonzero">
<path style=" stroke:none;fill-rule:nonzero;fill:rgb(65.098572%,65.098572%,65.098572%);fill-opacity:1;" d="M 196.234375 324.445312 L 268.019531 197.945312 C 269.664062 195.046875 270.570312 191.296875 270.570312 187.386719 C 270.570312 183.476562 269.664062 179.726562 268.019531 176.828125 L 196.234375 50.328125 C 194.132812 46.632812 190.917969 44.511719 187.414062 44.511719 C 183.910156 44.511719 180.695312 46.632812 178.59375 50.332031 L 106.808594 176.828125 C 105.167969 179.726562 104.261719 183.476562 104.261719 187.386719 C 104.261719 191.300781 105.164062 195.050781 106.808594 197.949219 L 178.597656 324.445312 C 180.695312 328.140625 183.910156 330.257812 187.414062 330.257812 C 190.921875 330.257812 194.136719 328.140625 196.234375 324.445312 Z M 196.234375 324.445312 "/>
</g>
<g clip-path="url(#clip6)" clip-rule="nonzero">
<path style=" stroke:none;fill-rule:nonzero;fill:rgb(32.159424%,44.309998%,100%);fill-opacity:1;" d="M 238.316406 187.316406 C 238.316406 215.484375 215.484375 238.316406 187.316406 238.316406 C 159.152344 238.316406 136.316406 215.484375 136.316406 187.316406 C 136.316406 159.152344 159.152344 136.316406 187.316406 136.316406 C 215.484375 136.316406 238.316406 159.152344 238.316406 187.316406 "/>
</g>
<path style=" stroke:none;fill-rule:nonzero;fill:rgb(49.409485%,85.099792%,34.118652%);fill-opacity:1;" d="M 156.148438 196.5625 C 156.148438 207.792969 169.171875 222.0625 187.316406 222.0625 C 205.460938 222.0625 218.484375 207.894531 218.484375 196.5625 C 218.484375 196.5625 189.207031 204.371094 156.148438 196.5625 Z M 156.148438 196.5625 "/>
<g clip-path="url(#clip7)" clip-rule="nonzero">
<path style=" stroke:none;fill-rule:nonzero;fill:rgb(49.409485%,85.099792%,34.118652%);fill-opacity:1;" d="M 170.316406 201.492188 L 170.316406 221.214844 C 170.316406 229.714844 175.984375 238.214844 187.316406 238.214844 C 198.648438 238.214844 204.316406 229.714844 204.316406 221.214844 L 204.316406 201.609375 C 186.492188 205.269531 170.316406 201.492188 170.316406 201.492188 Z M 170.316406 201.492188 "/>
</g>
<path style=" stroke:none;fill-rule:nonzero;fill:rgb(49.409485%,85.099792%,34.118652%);fill-opacity:1;" d="M 171.121094 171.25 C 168.980469 170.425781 166.953125 169.640625 166.953125 168.507812 C 166.953125 166.640625 169.457031 166.546875 169.960938 166.546875 C 171.730469 166.546875 172.613281 167.207031 173.386719 167.796875 C 173.984375 168.246094 174.601562 168.710938 175.460938 168.710938 C 177.058594 168.710938 177.785156 167.585938 177.785156 166.539062 C 177.785156 164.453125 175.230469 162.980469 172.519531 162.363281 L 172.519531 161.25 C 172.519531 159.78125 171.328125 158.589844 169.859375 158.589844 C 168.394531 158.589844 167.199219 159.78125 167.199219 161.25 L 167.199219 162.457031 C 163.957031 163.402344 161.972656 165.785156 161.972656 168.789062 C 161.972656 172.503906 165.636719 174.027344 168.867188 175.371094 C 171.183594 176.335938 173.371094 177.242188 173.371094 178.664062 C 173.371094 179.699219 172.066406 180.824219 169.960938 180.824219 C 167.835938 180.824219 166.617188 179.972656 165.542969 179.222656 C 164.800781 178.707031 164.097656 178.214844 163.257812 178.214844 C 162.039062 178.214844 161.089844 179.242188 161.089844 180.550781 C 161.089844 182.472656 163.726562 184.394531 167.199219 185.066406 L 167.199219 186.398438 C 167.199219 187.867188 168.394531 189.054688 169.859375 189.054688 C 171.328125 189.054688 172.519531 187.863281 172.519531 186.398438 L 172.507812 184.988281 C 176.179688 184.09375 178.347656 181.523438 178.347656 178.019531 C 178.351562 174.042969 174.34375 172.496094 171.121094 171.25 Z M 211.949219 178.070312 C 211.949219 174.089844 207.941406 172.542969 204.71875 171.300781 C 202.578125 170.472656 200.554688 169.691406 200.554688 168.558594 C 200.554688 166.691406 203.058594 166.59375 203.558594 166.59375 C 205.332031 166.59375 206.210938 167.257812 206.988281 167.84375 C 207.585938 168.292969 208.199219 168.757812 209.058594 168.757812 C 210.65625 168.757812 211.386719 167.632812 211.386719 166.589844 C 211.386719 164.5 208.832031 163.027344 206.121094 162.410156 L 206.121094 161.300781 C 206.121094 159.832031 204.925781 158.640625 203.460938 158.640625 C 201.992188 158.640625 200.796875 159.832031 200.796875 161.300781 L 200.796875 162.507812 C 197.558594 163.453125 195.570312 165.835938 195.570312 168.839844 C 195.570312 172.554688 199.234375 174.078125 202.464844 175.421875 C 204.78125 176.386719 206.96875 177.296875 206.96875 178.714844 C 206.96875 179.75 205.667969 180.875 203.5625 180.875 C 201.4375 180.875 200.21875 180.023438 199.144531 179.277344 C 198.402344 178.757812 197.699219 178.265625 196.863281 178.265625 C 195.640625 178.265625 194.6875 179.292969 194.6875 180.601562 C 194.6875 182.527344 197.328125 184.445312 200.796875 185.117188 L 200.796875 186.449219 C 200.796875 187.914062 201.996094 189.105469 203.464844 189.105469 C 204.929688 189.105469 206.121094 187.914062 206.121094 186.449219 L 206.113281 185.039062 C 209.78125 184.140625 211.949219 181.574219 211.949219 178.070312 Z M 211.949219 178.070312 "/>
<path style=" stroke:none;fill-rule:nonzero;fill:rgb(100%,100%,100%);fill-opacity:1;" d="M 195.730469 224.34375 C 195.730469 220.46875 191.824219 218.960938 188.683594 217.746094 C 186.597656 216.941406 184.621094 216.175781 184.621094 215.074219 C 184.621094 213.253906 187.0625 213.164062 187.550781 213.164062 C 189.277344 213.164062 190.136719 213.8125 190.894531 214.378906 C 191.476562 214.820312 192.078125 215.273438 192.914062 215.273438 C 194.472656 215.273438 195.183594 214.171875 195.183594 213.15625 C 195.183594 211.125 192.695312 209.6875 190.050781 209.085938 L 190.050781 208 C 190.050781 206.570312 188.886719 205.40625 187.457031 205.40625 C 186.023438 205.40625 184.859375 206.570312 184.859375 208 L 184.859375 209.175781 C 181.699219 210.09375 179.761719 212.421875 179.761719 215.347656 C 179.761719 218.96875 183.335938 220.457031 186.488281 221.765625 C 188.746094 222.703125 190.875 223.589844 190.875 224.972656 C 190.875 225.984375 189.605469 227.078125 187.550781 227.078125 C 185.480469 227.078125 184.292969 226.253906 183.246094 225.519531 C 182.523438 225.015625 181.835938 224.535156 181.019531 224.535156 C 179.832031 224.535156 178.902344 225.539062 178.902344 226.8125 C 178.902344 228.691406 181.472656 230.558594 184.855469 231.214844 L 184.855469 232.515625 C 184.855469 233.945312 186.023438 235.105469 187.457031 235.105469 C 188.886719 235.105469 190.046875 233.945312 190.046875 232.515625 L 190.039062 231.140625 C 193.617188 230.265625 195.730469 227.757812 195.730469 224.34375 Z M 195.730469 224.34375 "/>
</g>
</svg>
